<svg height="470pt" viewBox="0 -80 470 469" width="470pt" xmlns="http://www.w3.org/2000/svg"><path d="m461.828125 283.238281v18.0625h-453.65625v-18.0625c-.003906-22.425781 14.9375-42.105469 36.539063-48.128906l92.507812-25.820313c14.511719-4.046874 25.875-15.34375 30.011719-29.828124 8.644531-30.257813 36.300781-51.121094 67.769531-51.121094s59.125 20.863281 67.769531 51.121094c4.140625 14.480468 15.503907 25.777343 30.011719 29.828124l92.507812 25.820313c21.601563 6.023437 36.542969 25.703125 36.539063 48.128906zm0 0" fill="#00efd1"/><path d="m427.527344 227.410156-92.558594-25.820312c-11.839844-3.300782-21.117188-12.511719-24.5-24.324219-8.921875-31.214844-36.136719-53.714844-68.46875-56.609375v-33.484375c0-4.421875-3.582031-8-8-8-16.785156 0-30.96875-14.355469-30.96875-31.34375.128906-17.398437 14.316406-31.414063 31.71875-31.328125 13.058594-.058594 24.738281 8.117188 29.148438 20.410156 1.527343 4.144532 6.125 6.269532 10.273437 4.746094 4.144531-1.527344 6.269531-6.125 4.742187-10.269531-6.835937-18.5-24.441406-30.8125-44.164062-30.886719-26.3125 0-47.71875 21.230469-47.71875 47.328125.105469 22.890625 16.464844 42.46875 38.96875 46.644531v26.382813c-31.519531 3.640625-57.746094 25.898437-66.460938 56.40625-3.332031 11.835937-12.617187 21.0625-24.46875 24.324219l-92.59375 25.816406c-25.042968 7.035156-42.382812 29.828125-42.476562 55.835937v18.0625c0 4.417969 3.753906 7.609375 8.171875 7.609375h453.65625c4.417969 0 8.171875-3.191406 8.171875-7.609375v-18.0625c-.097656-26.007812-17.433594-48.796875-42.472656-55.828125zm26.472656 65.5h-438v-9.671875c.078125-18.835937 12.640625-35.335937 30.777344-40.421875l92.550781-25.820312c17.160156-4.851563 30.605469-18.207032 35.570313-35.335938 7.667968-26.824218 32.1875-45.320312 60.089843-45.320312 27.898438 0 52.421875 18.496094 60.085938 45.320312 4.90625 17.160156 18.367187 30.539063 35.554687 35.339844l92.601563 25.820312c18.128906 5.089844 30.6875 21.585938 30.769531 40.417969zm0 0" fill="#083863"/></svg>