<?xml version="1.0" encoding="iso-8859-1"?>
<!-- Generator: Adobe Illustrator 18.0.0, SVG Export Plug-In . SVG Version: 6.00 Build 0)  -->
<!DOCTYPE svg PUBLIC "-//W3C//DTD SVG 1.1//EN" "http://www.w3.org/Graphics/SVG/1.1/DTD/svg11.dtd">
<svg version="1.1" id="Capa_1" xmlns="http://www.w3.org/2000/svg" xmlns:xlink="http://www.w3.org/1999/xlink" x="0px" y="0px"
	 viewBox="0 0 58 58" style="enable-background:new 0 0 58 58;" xml:space="preserve">
<g>
	<rect y="24" style="fill:#DD352E;" width="58" height="34"/>
	<polygon style="fill:#FFFFFF;" points="40,37 33,37 33,30 25,30 25,37 18,37 18,45 25,45 25,52 33,52 33,45 40,45 	"/>
	<rect y="11" style="fill:#B02721;" width="58" height="13"/>
	<rect x="8" y="20" style="fill:#949493;" width="8" height="4"/>
	<rect x="8" y="24" style="fill:#E7ECED;" width="8" height="4"/>
	<rect x="42" y="20" style="fill:#949493;" width="8" height="4"/>
	<rect x="42" y="24" style="fill:#E7ECED;" width="8" height="4"/>
	<path style="fill:#3E465B;" d="M19,2.236V11h3V7.236C22,6.001,23.001,5,24.236,5h11.528C36.999,5,38,6.001,38,7.236V11h3V2.236
		C41,1.001,39.999,0,38.764,0H21.236C20.001,0,19,1.001,19,2.236z"/>
</g>
<g>
</g>
<g>
</g>
<g>
</g>
<g>
</g>
<g>
</g>
<g>
</g>
<g>
</g>
<g>
</g>
<g>
</g>
<g>
</g>
<g>
</g>
<g>
</g>
<g>
</g>
<g>
</g>
<g>
</g>
</svg>
