<svg height="512pt" viewBox="0 -46 512 512" width="512pt" xmlns="http://www.w3.org/2000/svg"><path d="m392 195h-30v-120c0-24.8125 20.1875-45 45-45v30c-8.269531 0-15 6.730469-15 15zm0 0" fill="#876a64"/><path d="m240 15h-150v150h195zm0 0" fill="#a4f3fa"/><path d="m75 15h30v150h-30zm0 0" fill="#80a257"/><path d="m254.363281 10.679688 44.992188 149.996093-28.734375 8.617188-44.992188-149.996094zm0 0" fill="#80a257"/><path d="m482 210c0-33.085938-26.914062-60-60-60h-122l-30 120 212-30zm0 0" fill="#629761"/><path d="m189.121094 150 51.070312 120h59.808594v-120zm0 0" fill="#80a257"/><path d="m482 240h-182l-10 45 10 45h182zm0 0" fill="#448b6a"/><path d="m240.191406 240 51.074219 90h8.734375v-90zm0 0" fill="#629761"/><path d="m285 330v-30c0-91.128906-73.871094-165-165-165-60.089844 0-90.507812 40.855469-95.851562 48.796875l120.746093 146.203125zm0 0" fill="#876a64"/><path d="m347 315h-67l20 30h47zm0 0" fill="#629761"/><path d="m300 300c0-99.253906-80.746094-180-180-180-41.738281 0-82.421875 14.613281-114.550781 41.148438l19.101562 23.132812c26.769531-22.105469 60.667969-34.28125 95.449219-34.28125 82.710938 0 150 67.289062 150 150v45h30zm0 0" fill="#9dad4e"/><path d="m45 0h240v30h-240zm0 0" fill="#80a257"/><path d="m512 330c0 49.707031-40.292969 90-90 90s-90-40.292969-90-90 40.292969-90 90-90 90 40.292969 90 90zm0 0" fill="#5c0429"/><path d="m452 330c0 16.570312-13.429688 30-30 30s-30-13.429688-30-30 13.429688-30 30-30 30 13.429688 30 30zm0 0" fill="#876a64"/><path d="m240 300c0 66.273438-53.726562 120-120 120s-120-53.726562-120-120 53.726562-120 120-120 120 53.726562 120 120zm0 0" fill="#6b3628"/><path d="m165 300c0 24.851562-20.148438 45-45 45s-45-20.148438-45-45 20.148438-45 45-45 45 20.148438 45 45zm0 0" fill="#a38b83"/></svg>