<?xml version="1.0" encoding="UTF-8" standalone="no"?>
<!-- Generator: Adobe Illustrator 18.0.0, SVG Export Plug-In . SVG Version: 6.00 Build 0)  -->

<svg
   xmlns:dc="http://purl.org/dc/elements/1.1/"
   xmlns:cc="http://creativecommons.org/ns#"
   xmlns:rdf="http://www.w3.org/1999/02/22-rdf-syntax-ns#"
   xmlns:svg="http://www.w3.org/2000/svg"
   xmlns="http://www.w3.org/2000/svg"
   xmlns:sodipodi="http://sodipodi.sourceforge.net/DTD/sodipodi-0.dtd"
   xmlns:inkscape="http://www.inkscape.org/namespaces/inkscape"
   version="1.1"
   id="Capa_1"
   x="0px"
   y="0px"
   viewBox="0 0 350 350"
   style="enable-background:new 0 0 350 350;"
   xml:space="preserve"
   sodipodi:docname="user_avatar.svg"
   inkscape:version="0.92.4 (5da689c313, 2019-01-14)"><metadata
   id="metadata7046"><rdf:RDF><cc:Work
       rdf:about=""><dc:format>image/svg+xml</dc:format><dc:type
         rdf:resource="http://purl.org/dc/dcmitype/StillImage" /><dc:title /></cc:Work></rdf:RDF></metadata><defs
   id="defs7044" /><sodipodi:namedview
   pagecolor="#ffffff"
   bordercolor="#666666"
   borderopacity="1"
   objecttolerance="10"
   gridtolerance="10"
   guidetolerance="10"
   inkscape:pageopacity="0"
   inkscape:pageshadow="2"
   inkscape:window-width="1366"
   inkscape:window-height="705"
   id="namedview7042"
   showgrid="false"
   inkscape:zoom="1.5314286"
   inkscape:cx="175"
   inkscape:cy="175"
   inkscape:window-x="-8"
   inkscape:window-y="-8"
   inkscape:window-maximized="1"
   inkscape:current-layer="Capa_1" />
<g
   id="g7009">
	<path
   d="M175,171.173c38.914,0,70.463-38.318,70.463-85.586C245.463,38.318,235.105,0,175,0s-70.465,38.318-70.465,85.587   C104.535,132.855,136.084,171.173,175,171.173z"
   id="path7001" />
	<path
   d="M41.909,301.853C41.897,298.971,41.885,301.041,41.909,301.853L41.909,301.853z"
   id="path7003" />
	<path
   d="M308.085,304.104C308.123,303.315,308.098,298.63,308.085,304.104L308.085,304.104z"
   id="path7005" />
	<path
   d="M307.935,298.397c-1.305-82.342-12.059-105.805-94.352-120.657c0,0-11.584,14.761-38.584,14.761   s-38.586-14.761-38.586-14.761c-81.395,14.69-92.803,37.805-94.303,117.982c-0.123,6.547-0.18,6.891-0.202,6.131   c0.005,1.424,0.011,4.058,0.011,8.651c0,0,19.592,39.496,133.08,39.496c113.486,0,133.08-39.496,133.08-39.496   c0-2.951,0.002-5.003,0.005-6.399C308.062,304.575,308.018,303.664,307.935,298.397z"
   id="path7007" />
</g>
<g
   id="g7011">
</g>
<g
   id="g7013">
</g>
<g
   id="g7015">
</g>
<g
   id="g7017">
</g>
<g
   id="g7019">
</g>
<g
   id="g7021">
</g>
<g
   id="g7023">
</g>
<g
   id="g7025">
</g>
<g
   id="g7027">
</g>
<g
   id="g7029">
</g>
<g
   id="g7031">
</g>
<g
   id="g7033">
</g>
<g
   id="g7035">
</g>
<g
   id="g7037">
</g>
<g
   id="g7039">
</g>
<path
   style="opacity:1;fill:#4caf50;fill-opacity:1;stroke:none;stroke-width:1.23398757;stroke-linejoin:round;stroke-miterlimit:4;stroke-dasharray:none;stroke-opacity:1"
   d="m 149.66418,349.03021 c -45.62193,-2.61458 -82.781621,-14.05716 -101.002155,-31.10157 -7.199159,-6.73447 -6.835142,-5.10968 -6.088828,-27.1774 1.180938,-34.91907 3.478733,-50.44316 9.653953,-65.22287 9.427999,-22.56488 29.49011,-35.63293 67.72621,-44.11545 16.58603,-3.67955 15.02643,-3.70165 20.2862,0.28751 5.49297,4.16602 11.91027,7.29316 18.8929,9.20648 7.53828,2.06557 24.36184,2.05581 31.99627,-0.0186 6.84722,-1.8605 14.84105,-5.86676 19.04193,-9.54324 1.85366,-1.62226 3.8558,-2.94957 4.4492,-2.94957 0.5934,0 4.65979,0.74017 9.03643,1.64482 57.39393,11.86331 75.89396,29.38078 81.70586,77.36638 1.15865,9.56636 2.32203,31.8277 2.32343,44.45907 l 10e-4,8.87138 -2.42228,3.1091 c -3.31849,4.25942 -11.45272,10.63244 -18.66913,14.6269 -19.90717,11.01911 -48.39094,17.91743 -83.92789,20.326 -8.96241,0.60744 -43.78649,0.75924 -53.00309,0.23104 z"
   id="path7048"
   inkscape:connector-curvature="0" /><path
   style="opacity:1;fill:#4caf50;fill-opacity:1;stroke:none;stroke-width:1.23398757;stroke-linejoin:round;stroke-miterlimit:4;stroke-dasharray:none;stroke-opacity:1"
   d="m 162.85242,169.56224 c -24.75711,-5.37525 -45.85671,-27.15632 -53.9987,-55.74272 -3.60249,-12.64828 -4.6504,-24.536126 -3.63243,-41.20758 1.14759,-18.794357 3.566,-29.949669 8.86928,-40.911063 8.07345,-16.687077 21.63239,-26.2038601 42.78198,-30.0279235 8.61149,-1.55704723 27.33066,-1.53267161 36.17819,0.04711 30.50227,5.4463684 45.83861,22.9323625 50.72256,57.8321755 1.37839,9.849731 1.19999,37.378015 -0.28972,44.705791 -6.94594,34.16657 -28.90926,59.49742 -56.64683,65.3322 -5.71185,1.20153 -18.38963,1.18673 -23.98433,-0.028 z"
   id="path7050"
   inkscape:connector-curvature="0" /></svg>